{
  "accessors": [
    {
      "bufferView": 2,
      "componentType": 5126,
      "count": 40,
      "max": [
        0.02353459969162941,
        0.66572999954223633,
        1
      ],
      "min": [
        -0.29980000853538513,
        0.02011759951710701,
        0.18303200602531433
      ],
      "type": "VEC3"
    },
    {
      "bufferView": 2,
      "byteOffset": 480,
      "componentType": 5126,
      "count": 40,
      "max": [
        0.91025227308273315,
        0.59084707498550415,
        0.16692101955413818
      ],
      "min": [
        0.78932714462280273,
        0.22751300036907196,
        -0.3717769980430603
      ],
      "type": "VEC3"
    },
    {
      "bufferView": 3,
      "componentType": 5126,
      "count": 40,
      "max": [
        -0.41392698884010315,
        0.71290069818496704,
        -0.56605768203735352,
        1
      ],
      "min": [
        -0.41403037309646606,
        0.71284490823745728,
        -0.56607657670974731,
        1
      ],
      "type": "VEC4"
    },
    {
      "bufferView": 1,
      "componentType": 5126,
      "count": 40,
      "max": [
        0.3164600133895874,
        0.7625499963760376
      ],
      "min": [
        3.7252900764173091e-09,
        0
      ],
      "type": "VEC2"
    },
    {
      "bufferView": 0,
      "componentType": 5125,
      "count": 168,
      "max": [
        39
      ],
      "min": [
        0
      ],
      "type": "SCALAR"
    },
    {
      "bufferView": 2,
      "byteOffset": 960,
      "componentType": 5126,
      "count": 882,
      "max": [
        0.18613900244235992,
        0.15637500584125519,
        0.28305399417877197
      ],
      "min": [
        -0.059812899678945541,
        -0.013228099793195724,
        -0.050564799457788467
      ],
      "type": "VEC3"
    },
    {
      "bufferView": 2,
      "byteOffset": 11544,
      "componentType": 5126,
      "count": 882,
      "max": [
        0.99974602460861206,
        0.95822286605834961,
        0.99875688552856445
      ],
      "min": [
        -0.99974602460861206,
        -0.95822274684906006,
        -0.99875688552856445
      ],
      "type": "VEC3"
    },
    {
      "bufferView": 3,
      "byteOffset": 640,
      "componentType": 5126,
      "count": 882,
      "max": [
        0.97478854656219482,
        0.99905812740325928,
        0.92049682140350342,
        1
      ],
      "min": [
        -0.97483640909194946,
        -0.99886161088943481,
        -0.99334335327148438,
        1
      ],
      "type": "VEC4"
    },
    {
      "bufferView": 1,
      "byteOffset": 320,
      "componentType": 5126,
      "count": 882,
      "max": [
        0.94470697641372681,
        0.86483502388000488
      ],
      "min": [
        0.31705999374389648,
        0
      ],
      "type": "VEC2"
    },
    {
      "bufferView": 0,
      "byteOffset": 672,
      "componentType": 5125,
      "count": 2532,
      "max": [
        881
      ],
      "min": [
        0
      ],
      "type": "SCALAR"
    },
    {
      "bufferView": 2,
      "byteOffset": 22128,
      "componentType": 5126,
      "count": 357,
      "max": [
        0.22564199566841125,
        0.065478302538394928,
        0.0077184000983834267
      ],
      "min": [
        0.078777201473712921,
        -0.13478100299835205,
        -0.19767199456691742
      ],
      "type": "VEC3"
    },
    {
      "bufferView": 2,
      "byteOffset": 26412,
      "componentType": 5126,
      "count": 357,
      "max": [
        0.99983978271484375,
        0.99278497695922852,
        0.9898340106010437
      ],
      "min": [
        -0.99997109174728394,
        -0.99278509616851807,
        -0.9898340106010437
      ],
      "type": "VEC3"
    },
    {
      "bufferView": 3,
      "byteOffset": 14752,
      "componentType": 5126,
      "count": 357,
      "max": [
        0.4455258846282959,
        0.95636481046676636,
        0.99375742673873901,
        1
      ],
      "min": [
        -0.67825788259506226,
        -0.92018979787826538,
        -0.99666458368301392,
        1
      ],
      "type": "VEC4"
    },
    {
      "bufferView": 1,
      "byteOffset": 7376,
      "componentType": 5126,
      "count": 357,
      "max": [
        0.51427298784255981,
        0.96783798933029175
      ],
      "min": [
        0,
        0.76249498128890991
      ],
      "type": "VEC2"
    },
    {
      "bufferView": 0,
      "byteOffset": 10800,
      "componentType": 5125,
      "count": 1920,
      "max": [
        356
      ],
      "min": [
        0
      ],
      "type": "SCALAR"
    },
    {
      "bufferView": 2,
      "byteOffset": 30696,
      "componentType": 5126,
      "count": 422,
      "max": [
        0.24365200102329254,
        -0.053156498819589615,
        -0.14947700500488281
      ],
      "min": [
        0.12438800185918808,
        -0.30323499441146851,
        -0.46185800433158875
      ],
      "type": "VEC3"
    },
    {
      "bufferView": 2,
      "byteOffset": 35760,
      "componentType": 5126,
      "count": 422,
      "max": [
        0.98646873235702515,
        0.82172340154647827,
        0.88565486669540405
      ],
      "min": [
        -0.98696786165237427,
        -0.82163268327713013,
        -0.81232815980911255
      ],
      "type": "VEC3"
    },
    {
      "bufferView": 3,
      "byteOffset": 20464,
      "componentType": 5126,
      "count": 422,
      "max": [
        0.99698865413665771,
        0.88842278718948364,
        0.71492254734039307,
        1
      ],
      "min": [
        -0.9971432089805603,
        -0.88287150859832764,
        -0.85040479898452759,
        1
      ],
      "type": "VEC4"
    },
    {
      "bufferView": 1,
      "byteOffset": 10232,
      "componentType": 5126,
      "count": 422,
      "max": [
        0.99727201461791992,
        0.85418099164962769
      ],
      "min": [
        0.56206101179122925,
        -1.2107199687250159e-08
      ],
      "type": "VEC2"
    },
    {
      "bufferView": 0,
      "byteOffset": 18480,
      "componentType": 5125,
      "count": 1200,
      "max": [
        421
      ],
      "min": [
        0
      ],
      "type": "SCALAR"
    },
    {
      "bufferView": 2,
      "byteOffset": 40824,
      "componentType": 5126,
      "count": 64,
      "max": [
        0.29980000853538513,
        -0.054347101598978043,
        -0.14950099587440491
      ],
      "min": [
        0.13069400191307068,
        -0.66572999954223633,
        -1
      ],
      "type": "VEC3"
    },
    {
      "bufferView": 2,
      "byteOffset": 41592,
      "componentType": 5126,
      "count": 64,
      "max": [
        0.99213600158691406,
        0.79086363315582275,
        0.69822591543197632
      ],
      "min": [
        -0.99720799922943115,
        -0.83474880456924438,
        -0.75526618957519531
      ],
      "type": "VEC3"
    },
    {
      "bufferView": 3,
      "byteOffset": 27216,
      "componentType": 5126,
      "count": 64,
      "max": [
        0.74475252628326416,
        0.67416155338287354,
        0.4978967010974884,
        1
      ],
      "min": [
        -0.89681631326675415,
        -0.97537720203399658,
        -0.98138821125030518,
        1
      ],
      "type": "VEC4"
    },
    {
      "bufferView": 1,
      "byteOffset": 13608,
      "componentType": 5126,
      "count": 64,
      "max": [
        1,
        0.90677499771118164
      ],
      "min": [
        0.31705999374389648,
        0
      ],
      "type": "VEC2"
    },
    {
      "bufferView": 0,
      "byteOffset": 23280,
      "componentType": 5125,
      "count": 120,
      "max": [
        63
      ],
      "min": [
        0
      ],
      "type": "SCALAR"
    }
  ],
  "asset": {
    "extras": {
      "author": "matoteus (https://sketchfab.com/matoteus)",
      "license": "CC-BY-4.0 (http://creativecommons.org/licenses/by/4.0/)",
      "source": "https://sketchfab.com/3d-models/exposive-kunai-819165867a3041eeb984a42afa65055c",
      "title": "Exposive Kunai"
    },
    "generator": "Sketchfab-7.27.0",
    "version": "2.0"
  },
  "bufferViews": [
    {
      "buffer": 0,
      "byteLength": 23760,
      "byteOffset": 0,
      "name": "floatBufferViews",
      "target": 34963
    },
    {
      "buffer": 0,
      "byteLength": 14120,
      "byteOffset": 23760,
      "byteStride": 8,
      "name": "floatBufferViews",
      "target": 34962
    },
    {
      "buffer": 0,
      "byteLength": 42360,
      "byteOffset": 37880,
      "byteStride": 12,
      "name": "floatBufferViews",
      "target": 34962
    },
    {
      "buffer": 0,
      "byteLength": 28240,
      "byteOffset": 80240,
      "byteStride": 16,
      "name": "floatBufferViews",
      "target": 34962
    }
  ],
  "buffers": [
    {
      "byteLength": 108480,
      "uri": "scene.bin"
    }
  ],
  "images": [
    {
      "uri": "textures/lambert1_baseColor.jpeg"
    },
    {
      "uri": "textures/lambert1_metallicRoughness.png"
    },
    {
      "uri": "textures/lambert1_normal.png"
    }
  ],
  "materials": [
    {
      "doubleSided": true,
      "name": "lambert1",
      "normalTexture": {
        "index": 2,
        "scale": 1,
        "texCoord": 0
      },
      "occlusionTexture": {
        "index": 1,
        "strength": 1,
        "texCoord": 0
      },
      "pbrMetallicRoughness": {
        "baseColorFactor": [
          1,
          1,
          1,
          1
        ],
        "baseColorTexture": {
          "index": 0,
          "texCoord": 0
        },
        "metallicFactor": 1,
        "metallicRoughnessTexture": {
          "index": 1,
          "texCoord": 0
        },
        "roughnessFactor": 0.85537347560975607
      }
    }
  ],
  "meshes": [
    {
      "name": "defaultMaterial",
      "primitives": [
        {
          "attributes": {
            "NORMAL": 1,
            "POSITION": 0,
            "TANGENT": 2,
            "TEXCOORD_0": 3
          },
          "indices": 4,
          "material": 0,
          "mode": 4
        }
      ]
    },
    {
      "name": "defaultMaterial",
      "primitives": [
        {
          "attributes": {
            "NORMAL": 6,
            "POSITION": 5,
            "TANGENT": 7,
            "TEXCOORD_0": 8
          },
          "indices": 9,
          "material": 0,
          "mode": 4
        }
      ]
    },
    {
      "name": "defaultMaterial",
      "primitives": [
        {
          "attributes": {
            "NORMAL": 11,
            "POSITION": 10,
            "TANGENT": 12,
            "TEXCOORD_0": 13
          },
          "indices": 14,
          "material": 0,
          "mode": 4
        }
      ]
    },
    {
      "name": "defaultMaterial",
      "primitives": [
        {
          "attributes": {
            "NORMAL": 16,
            "POSITION": 15,
            "TANGENT": 17,
            "TEXCOORD_0": 18
          },
          "indices": 19,
          "material": 0,
          "mode": 4
        }
      ]
    },
    {
      "name": "defaultMaterial",
      "primitives": [
        {
          "attributes": {
            "NORMAL": 21,
            "POSITION": 20,
            "TANGENT": 22,
            "TEXCOORD_0": 23
          },
          "indices": 24,
          "material": 0,
          "mode": 4
        }
      ]
    }
  ],
  "nodes": [
    {
      "children": [
        1
      ],
      "name": "RootNode (gltf orientation matrix)",
      "rotation": [
        -0.70710678118654746,
        -0,
        -0,
        0.70710678118654757
      ]
    },
    {
      "children": [
        2
      ],
      "name": "RootNode (model correction matrix)"
    },
    {
      "children": [
        3,
        5,
        7,
        9,
        11
      ],
      "matrix": [
        1,
        0,
        0,
        0,
        0,
        -4.3711390063094768e-08,
        0.999999999999999,
        0,
        0,
        -0.999999999999999,
        -4.3711390063094768e-08,
        0,
        0,
        0,
        0,
        1
      ],
      "name": "Collada visual scene group"
    },
    {
      "children": [
        4
      ],
      "name": "Plane001"
    },
    {
      "mesh": 0,
      "name": "defaultMaterial"
    },
    {
      "children": [
        6
      ],
      "name": "Line001"
    },
    {
      "mesh": 1,
      "name": "defaultMaterial"
    },
    {
      "children": [
        8
      ],
      "name": "pTorus1"
    },
    {
      "mesh": 2,
      "name": "defaultMaterial"
    },
    {
      "children": [
        10
      ],
      "name": "pCylinder1"
    },
    {
      "mesh": 3,
      "name": "defaultMaterial"
    },
    {
      "children": [
        12
      ],
      "name": "pCube1"
    },
    {
      "mesh": 4,
      "name": "defaultMaterial"
    }
  ],
  "samplers": [
    {
      "magFilter": 9729,
      "minFilter": 9987,
      "wrapS": 10497,
      "wrapT": 10497
    }
  ],
  "scene": 0,
  "scenes": [
    {
      "name": "OSG_Scene",
      "nodes": [
        0
      ]
    }
  ],
  "textures": [
    {
      "sampler": 0,
      "source": 0
    },
    {
      "sampler": 0,
      "source": 1
    },
    {
      "sampler": 0,
      "source": 2
    }
  ]
}

