{
  "accessors": [
    {
      "bufferView": 2,
      "componentType": 5126,
      "count": 153,
      "max": [
        0.17497800290584564,
        0.43037998676300049,
        0.09752260148525238
      ],
      "min": [
        -0.21264499425888062,
        0.083861798048019409,
        0.044938601553440094
      ],
      "type": "VEC3"
    },
    {
      "bufferView": 2,
      "byteOffset": 1836,
      "componentType": 5126,
      "count": 153,
      "max": [
        0.87387752532958984,
        0.99971312284469604,
        0.99743175506591797
      ],
      "min": [
        -0.86609482765197754,
        -1,
        -0.022593999281525612
      ],
      "type": "VEC3"
    },
    {
      "bufferView": 3,
      "componentType": 5126,
      "count": 153,
      "max": [
        0.99998700618743896,
        0.430076003074646,
        0.87358301877975464,
        1
      ],
      "min": [
        -0.26552000641822815,
        -0.41023001074790955,
        -0.88681900501251221,
        1
      ],
      "type": "VEC4"
    },
    {
      "bufferView": 1,
      "componentType": 5126,
      "count": 153,
      "max": [
        0.97638297080993652,
        0.75992798805236816
      ],
      "min": [
        0.78890198469161987,
        0.58738398551940918
      ],
      "type": "VEC2"
    },
    {
      "bufferView": 0,
      "componentType": 5125,
      "count": 414,
      "max": [
        152
      ],
      "min": [
        0
      ],
      "type": "SCALAR"
    },
    {
      "bufferView": 2,
      "byteOffset": 3672,
      "componentType": 5126,
      "count": 386,
      "max": [
        0.490090012550354,
        0.52213597297668457,
        0.096547700464725494
      ],
      "min": [
        -0.52667200565338135,
        0.062366198748350143,
        0.013151099905371666
      ],
      "type": "VEC3"
    },
    {
      "bufferView": 2,
      "byteOffset": 8304,
      "componentType": 5126,
      "count": 386,
      "max": [
        0.99925965070724487,
        0.99912512302398682,
        0.99981951713562012
      ],
      "min": [
        -0.99925947189331055,
        -0.99966162443161011,
        -0.054367389529943466
      ],
      "type": "VEC3"
    },
    {
      "bufferView": 3,
      "byteOffset": 2448,
      "componentType": 5126,
      "count": 386,
      "max": [
        0.99999600648880005,
        0.96230602264404297,
        0.99998801946640015,
        1
      ],
      "min": [
        -0.92329502105712891,
        -0.96105200052261353,
        -0.99994200468063354,
        1
      ],
      "type": "VEC4"
    },
    {
      "bufferView": 1,
      "byteOffset": 1224,
      "componentType": 5126,
      "count": 386,
      "max": [
        0.97327500581741333,
        0.96194201707839966
      ],
      "min": [
        0.65531200170516968,
        0.6712610125541687
      ],
      "type": "VEC2"
    },
    {
      "bufferView": 0,
      "byteOffset": 1656,
      "componentType": 5125,
      "count": 1440,
      "max": [
        385
      ],
      "min": [
        0
      ],
      "type": "SCALAR"
    },
    {
      "bufferView": 2,
      "byteOffset": 12936,
      "componentType": 5126,
      "count": 2106,
      "max": [
        0.79589402675628662,
        1,
        0.096491701900959015
      ],
      "min": [
        -0.79589402675628662,
        -1,
        -0.09752260148525238
      ],
      "type": "VEC3"
    },
    {
      "bufferView": 2,
      "byteOffset": 38208,
      "componentType": 5126,
      "count": 2106,
      "max": [
        0.99996936321258545,
        1,
        1
      ],
      "min": [
        -0.99996936321258545,
        -1,
        -1
      ],
      "type": "VEC3"
    },
    {
      "bufferView": 3,
      "byteOffset": 8624,
      "componentType": 5126,
      "count": 2106,
      "max": [
        0.9999920129776001,
        0.86757397651672363,
        0.9986569881439209,
        1
      ],
      "min": [
        -1,
        -0.84077399969100952,
        -0.99974900484085083,
        1
      ],
      "type": "VEC4"
    },
    {
      "bufferView": 1,
      "byteOffset": 4312,
      "componentType": 5126,
      "count": 2106,
      "max": [
        0.94450598955154419,
        0.98785698413848877
      ],
      "min": [
        0.012002299539744854,
        0.012143299914896488
      ],
      "type": "VEC2"
    },
    {
      "bufferView": 0,
      "byteOffset": 7416,
      "componentType": 5125,
      "count": 9522,
      "max": [
        2105
      ],
      "min": [
        0
      ],
      "type": "SCALAR"
    }
  ],
  "asset": {
    "extras": {
      "author": "lumoize (https://sketchfab.com/lumoize)",
      "license": "CC-BY-4.0 (http://creativecommons.org/licenses/by/4.0/)",
      "source": "https://sketchfab.com/models/f18686b4e9a142e9bb767da365a145a5",
      "title": "Hylian Shield"
    },
    "generator": "Sketchfab-3.19.4",
    "version": "2.0"
  },
  "bufferViews": [
    {
      "buffer": 0,
      "byteLength": 45504,
      "byteOffset": 0,
      "name": "floatBufferViews",
      "target": 34963
    },
    {
      "buffer": 0,
      "byteLength": 21160,
      "byteOffset": 45504,
      "byteStride": 8,
      "name": "floatBufferViews",
      "target": 34962
    },
    {
      "buffer": 0,
      "byteLength": 63480,
      "byteOffset": 66664,
      "byteStride": 12,
      "name": "floatBufferViews",
      "target": 34962
    },
    {
      "buffer": 0,
      "byteLength": 42320,
      "byteOffset": 130144,
      "byteStride": 16,
      "name": "floatBufferViews",
      "target": 34962
    }
  ],
  "buffers": [
    {
      "byteLength": 172464,
      "uri": "scene.bin"
    }
  ],
  "images": [
    {
      "uri": "textures/Shield_metallicRoughness.png"
    },
    {
      "uri": "textures/Shield_normal.jpeg"
    },
    {
      "uri": "textures/Shield_baseColor.jpeg"
    },
    {
      "uri": "textures/Triforce_metallicRoughness.png"
    },
    {
      "uri": "textures/Triforce_normal.jpeg"
    },
    {
      "uri": "textures/Triforce_baseColor.jpeg"
    },
    {
      "uri": "textures/MetalDeco_metallicRoughness.png"
    },
    {
      "uri": "textures/MetalDeco_normal.png"
    },
    {
      "uri": "textures/MetalDeco_baseColor.jpeg"
    }
  ],
  "materials": [
    {
      "doubleSided": true,
      "emissiveFactor": [
        0,
        0,
        0
      ],
      "name": "Shield",
      "normalTexture": {
        "index": 1,
        "scale": 1,
        "texCoord": 0
      },
      "occlusionTexture": {
        "index": 0,
        "strength": 1,
        "texCoord": 0
      },
      "pbrMetallicRoughness": {
        "baseColorFactor": [
          1,
          1,
          1,
          1
        ],
        "baseColorTexture": {
          "index": 2,
          "texCoord": 0
        },
        "metallicFactor": 1,
        "metallicRoughnessTexture": {
          "index": 0,
          "texCoord": 0
        },
        "roughnessFactor": 1
      }
    },
    {
      "doubleSided": true,
      "emissiveFactor": [
        0,
        0,
        0
      ],
      "name": "MetalDeco",
      "normalTexture": {
        "index": 7,
        "scale": 1,
        "texCoord": 0
      },
      "occlusionTexture": {
        "index": 6,
        "strength": 1,
        "texCoord": 0
      },
      "pbrMetallicRoughness": {
        "baseColorFactor": [
          1,
          1,
          1,
          1
        ],
        "baseColorTexture": {
          "index": 8,
          "texCoord": 0
        },
        "metallicFactor": 1,
        "metallicRoughnessTexture": {
          "index": 6,
          "texCoord": 0
        },
        "roughnessFactor": 1
      }
    },
    {
      "doubleSided": true,
      "emissiveFactor": [
        0,
        0,
        0
      ],
      "name": "Triforce",
      "normalTexture": {
        "index": 4,
        "scale": 1,
        "texCoord": 0
      },
      "occlusionTexture": {
        "index": 3,
        "strength": 1,
        "texCoord": 0
      },
      "pbrMetallicRoughness": {
        "baseColorFactor": [
          1,
          1,
          1,
          1
        ],
        "baseColorTexture": {
          "index": 5,
          "texCoord": 0
        },
        "metallicFactor": 1,
        "metallicRoughnessTexture": {
          "index": 3,
          "texCoord": 0
        },
        "roughnessFactor": 1
      }
    }
  ],
  "meshes": [
    {
      "name": "defaultMaterial",
      "primitives": [
        {
          "attributes": {
            "NORMAL": 1,
            "POSITION": 0,
            "TANGENT": 2,
            "TEXCOORD_0": 3
          },
          "indices": 4,
          "material": 2,
          "mode": 4
        }
      ]
    },
    {
      "name": "defaultMaterial",
      "primitives": [
        {
          "attributes": {
            "NORMAL": 6,
            "POSITION": 5,
            "TANGENT": 7,
            "TEXCOORD_0": 8
          },
          "indices": 9,
          "material": 1,
          "mode": 4
        }
      ]
    },
    {
      "name": "defaultMaterial",
      "primitives": [
        {
          "attributes": {
            "NORMAL": 11,
            "POSITION": 10,
            "TANGENT": 12,
            "TEXCOORD_0": 13
          },
          "indices": 14,
          "material": 0,
          "mode": 4
        }
      ]
    }
  ],
  "nodes": [
    {
      "children": [
        1
      ],
      "name": "RootNode (gltf orientation matrix)",
      "rotation": [
        -0.70710678118654746,
        -0,
        -0,
        0.70710678118654757
      ]
    },
    {
      "children": [
        2
      ],
      "name": "RootNode (model correction matrix)"
    },
    {
      "children": [
        3,
        5,
        7
      ],
      "matrix": [
        1,
        0,
        0,
        0,
        0,
        -4.3711390063094768e-08,
        0.999999999999999,
        0,
        0,
        -0.999999999999999,
        -4.3711390063094768e-08,
        0,
        0,
        0,
        0,
        1
      ],
      "name": "Collada visual scene group"
    },
    {
      "children": [
        4
      ],
      "name": "Shield_low"
    },
    {
      "mesh": 0,
      "name": "defaultMaterial"
    },
    {
      "children": [
        6
      ],
      "name": "Shield_low"
    },
    {
      "mesh": 1,
      "name": "defaultMaterial"
    },
    {
      "children": [
        8
      ],
      "name": "Shield_low"
    },
    {
      "mesh": 2,
      "name": "defaultMaterial"
    }
  ],
  "samplers": [
    {
      "magFilter": 9729,
      "minFilter": 9987,
      "wrapS": 10497,
      "wrapT": 10497
    }
  ],
  "scene": 0,
  "scenes": [
    {
      "name": "OSG_Scene",
      "nodes": [
        0
      ]
    }
  ],
  "textures": [
    {
      "sampler": 0,
      "source": 0
    },
    {
      "sampler": 0,
      "source": 1
    },
    {
      "sampler": 0,
      "source": 2
    },
    {
      "sampler": 0,
      "source": 3
    },
    {
      "sampler": 0,
      "source": 4
    },
    {
      "sampler": 0,
      "source": 5
    },
    {
      "sampler": 0,
      "source": 6
    },
    {
      "sampler": 0,
      "source": 7
    },
    {
      "sampler": 0,
      "source": 8
    }
  ]
}

